<svg width="1440" height="1024" viewBox="0 0 1440 1024" fill="none" xmlns="http://www.w3.org/2000/svg">
<rect width="1440" height="1024" fill="white"/>
<rect x="237.712" y="324.212" width="75" height="75" rx="3" transform="rotate(-30 237.712 324.212)" fill="#F1F1F1"/>
<path fill-rule="evenodd" clip-rule="evenodd" d="M397.364 180.017C398.146 179.131 399.106 178.478 400.147 178.124C401.188 177.77 402.273 177.727 403.293 178.001C404.313 178.274 405.232 178.853 405.956 179.68C406.681 180.508 407.185 181.553 407.419 182.711L424.066 261.295C425.174 266.535 420.787 271.643 416.231 270.422L345.872 251.57C341.311 250.348 340.072 243.726 343.651 239.748L397.364 180.017Z" fill="#F1F1F1"/>
<circle cx="246.5" cy="159.5" r="42.5" fill="#F1F1F1"/>
<rect x="1238" y="511.5" width="75" height="75" rx="3" transform="rotate(-30 1238 511.5)" fill="#F1F1F1"/>
<path fill-rule="evenodd" clip-rule="evenodd" d="M1143.93 540.71C1144.16 539.551 1144.67 538.506 1145.39 537.679C1146.12 536.852 1147.03 536.272 1148.05 535.999C1149.07 535.726 1150.16 535.768 1151.2 536.122C1152.24 536.476 1153.2 537.129 1153.98 538.015L1207.69 597.748C1211.27 601.732 1210.03 608.349 1205.47 609.569L1135.11 628.422C1130.55 629.644 1126.17 624.529 1127.28 619.295L1143.93 540.71Z" fill="#F1F1F1"/>
<circle cx="1318.5" cy="655.5" r="42.5" fill="#F1F1F1"/>
</svg>
