<svg width="164" height="164" viewBox="0 0 164 164" fill="none" xmlns="http://www.w3.org/2000/svg">
<path d="M82 164C98.9003 164 114.641 160.538 129.223 153.613C143.805 146.688 155.397 136.484 164 123C159.119 119.949 151.798 118.577 142.036 118.882C132.274 119.187 123.183 121.17 114.763 124.83C109.272 127.21 104.422 130.199 100.212 133.799C96.0022 137.399 93.0737 140.846 91.4263 144.141V103.049C103.69 101.341 113.818 96.6734 121.81 89.0469C129.803 81.4204 133.799 71.4754 133.799 59.2121V7.41295C133.799 5.33854 133.082 3.58445 131.648 2.15067C130.215 0.71689 128.461 0 126.386 0C125.105 0.610119 123.046 2.33371 120.209 5.17076C117.372 8.00781 114.23 11.333 110.782 15.1462C107.335 18.9594 105.154 21.3237 104.239 22.2388C103.446 21.4457 101.28 18.99 97.7411 14.8717C94.2024 10.7533 90.984 7.24516 88.0859 4.3471C85.1879 1.44903 83.1592 0 82 0C80.7798 0 78.7206 1.44903 75.8225 4.3471C72.9245 7.24516 69.7214 10.7533 66.2132 14.8717C62.705 18.99 60.5543 21.4457 59.7612 22.2388C58.846 21.3237 56.6648 18.9594 53.2176 15.1462C49.7705 11.333 46.6283 8.00781 43.7913 5.17076C40.9542 2.33371 38.8646 0.610119 37.5223 0C35.5089 0 33.7701 0.71689 32.3058 2.15067C30.8415 3.58445 30.1094 5.33854 30.1094 7.41295V59.2121C30.1094 65.4353 31.2228 71.1551 33.4498 76.3717C35.6767 81.5882 38.7426 85.9963 42.6473 89.596C46.5521 93.1957 51.0365 96.1395 56.1004 98.4275C61.1644 100.715 66.625 102.256 72.4821 103.049V144.141C70.8958 140.907 67.9978 137.475 63.7879 133.845C59.5781 130.215 54.7277 127.21 49.2366 124.83C40.817 121.17 31.7262 119.187 21.9643 118.882C12.2024 118.577 4.88095 119.949 0 123C8.66369 136.484 20.2712 146.688 34.8225 153.613C49.3739 160.538 65.0997 164 82 164Z" fill="#E64866"/>
</svg>
