<svg width="385" height="384" viewBox="0 0 385 384" fill="none" xmlns="http://www.w3.org/2000/svg">
<path d="M109.253 109.253C134.243 84.2625 134.243 43.7325 109.253 18.7425C84.2625 -6.2475 43.7325 -6.2475 18.7425 18.7425C-6.2475 43.7325 -6.2475 84.2625 18.7425 109.253C43.7425 134.253 84.2625 134.253 109.253 109.253ZM365.253 274.742C340.263 249.752 299.732 249.752 274.742 274.742C249.752 299.732 249.752 340.263 274.742 365.253C299.732 390.243 340.263 390.243 365.253 365.253C390.253 340.263 390.253 299.742 365.253 274.742ZM363.312 43.3125L340.693 20.6925C328.193 8.1925 307.933 8.1925 295.443 20.6925L20.6925 295.443C8.1925 307.943 8.1925 328.203 20.6925 340.693L43.3125 363.312C55.8125 375.812 76.0725 375.812 88.5625 363.312L363.312 88.5625C375.812 76.0725 375.812 55.8125 363.312 43.3125Z" fill="black"/>
</svg>
